# xmcd CD database file
#
# Track frame offsets:
#	300
#	14861
#	27918
#	50456
#	63268
#	81245
#	94416
#	110878
#	125412
#	146037
#	160412
#	184229
#
# Disc length: 2736 seconds
#
# Revision: 0
# Processed by: cddbd v1.5.1PL0 Copyright (c) Steve Scherf et al.
# Submitted via: CDex 1.51
#
DISCID=b40aac0c
DTITLE=Scarlet - Scarlet Episode III
DYEAR=1900
DGENRE=Jazz
TTITLE0=Only U
TTITLE1=Lover's Concerto
TTITLE2=Yesterday Once More
TTITLE3=Fly Me To The Moon
TTITLE4=Over The Rainbow
TTITLE5=I Like Chopin
TTITLE6=Guantanamera
TTITLE7=The Rose
TTITLE8=Corcovado
TTITLE9=Longer
TTITLE10=But Beautiful
TTITLE11=Summer Time
EXTD=
EXTT0=
EXTT1=
EXTT2=
EXTT3=
EXTT4=
EXTT5=
EXTT6=
EXTT7=
EXTT8=
EXTT9=
EXTT10=
EXTT11=
PLAYORDER=
